<svg xmlns="http://www.w3.org/2000/svg" xmlns:svg="http://www.w3.org/2000/svg" xmlns:xlink="http://www.w3.org/1999/xlink" id="svg2" width="256" height="16" version="1.1"><defs id="defs4"><marker id="TriangleInS" orient="auto" refX="0" refY="0" style="overflow:visible"><path id="path4487" d="M 5.77,0.0 L -2.88,5.0 L -2.88,-5.0 L 5.77,0.0 z" transform="scale(-0.2)" style="fill-rule:evenodd;stroke:#000;stroke-width:1pt;marker-start:none"/></marker><marker id="TriangleInM" orient="auto" refX="0" refY="0" style="overflow:visible"><path id="path4484" d="M 5.77,0.0 L -2.88,5.0 L -2.88,-5.0 L 5.77,0.0 z" transform="scale(-0.4)" style="fill-rule:evenodd;stroke:#000;stroke-width:1pt;marker-start:none"/></marker><marker id="Arrow1Send" orient="auto" refX="0" refY="0" style="overflow:visible"><path id="path4362" d="M 0.0,0.0 L 5.0,-5.0 L -12.5,0.0 L 5.0,5.0 L 0.0,0.0 z" transform="scale(0.2) rotate(180) translate(6,0)" style="fill-rule:evenodd;stroke:#000;stroke-width:1pt;marker-start:none"/></marker><marker id="Arrow2Send" orient="auto" refX="0" refY="0" style="overflow:visible"><path id="path4380" d="M 8.7185878,4.0337352 L -2.2072895,0.016013256 L 8.7185884,-4.0017078 C 6.9730900,-1.6296469 6.9831476,1.6157441 8.7185878,4.0337352 z" transform="scale(0.3) rotate(180) translate(-2.3,0)" style="font-size:12;fill-rule:evenodd;stroke-width:.625;stroke-linejoin:round"/></marker><marker id="Arrow2Mstart" orient="auto" refX="0" refY="0" style="overflow:visible"><path id="path4371" d="M 8.7185878,4.0337352 L -2.2072895,0.016013256 L 8.7185884,-4.0017078 C 6.9730900,-1.6296469 6.9831476,1.6157441 8.7185878,4.0337352 z" transform="scale(0.6) translate(0,0)" style="font-size:12;fill-rule:evenodd;stroke-width:.625;stroke-linejoin:round"/></marker><marker id="Arrow2Lstart" orient="auto" refX="0" refY="0" style="overflow:visible"><path id="path4365" d="M 8.7185878,4.0337352 L -2.2072895,0.016013256 L 8.7185884,-4.0017078 C 6.9730900,-1.6296469 6.9831476,1.6157441 8.7185878,4.0337352 z" transform="scale(1.1) translate(1,0)" style="font-size:12;fill-rule:evenodd;stroke-width:.625;stroke-linejoin:round"/></marker><marker id="Arrow1Lend" orient="auto" refX="0" refY="0" style="overflow:visible"><path id="path4350" d="M 0.0,0.0 L 5.0,-5.0 L -12.5,0.0 L 5.0,5.0 L 0.0,0.0 z" transform="scale(0.8) rotate(180) translate(12.5,0)" style="fill-rule:evenodd;stroke:#000;stroke-width:1pt;marker-start:none"/></marker><marker id="Arrow1Lstart" orient="auto" refX="0" refY="0" style="overflow:visible"><path id="path4347" d="M 0.0,0.0 L 5.0,-5.0 L -12.5,0.0 L 5.0,5.0 L 0.0,0.0 z" transform="scale(0.8) translate(12.5,0)" style="fill-rule:evenodd;stroke:#000;stroke-width:1pt;marker-start:none"/></marker><linearGradient id="linearGradient3855"><stop style="stop-color:#fff;stop-opacity:.77083331" id="stop3857" offset="0"/><stop style="stop-color:#fff;stop-opacity:0" id="stop3859" offset="1"/></linearGradient><linearGradient id="linearGradient3622"><stop style="stop-color:#fff;stop-opacity:1" id="stop3624" offset="0"/><stop style="stop-color:#999;stop-opacity:1" id="stop3626" offset="1"/></linearGradient><radialGradient id="radialGradient3617" cx="11.478" cy="10.957" r="9.391" fx="11.478" fy="10.957" gradientTransform="matrix(1.5,4.4485238e-8,-4.4485238e-8,1.5,-5.1521738,-5.1521876)" gradientUnits="userSpaceOnUse" xlink:href="#linearGradient3622"/><radialGradient id="radialGradient3861" cx="10.384" cy="7.614" r="12" fx="10.384" fy="7.614" gradientTransform="matrix(0.39585463,0.00788241,-0.00767096,0.38523527,5.8229123,4.7348906)" gradientUnits="userSpaceOnUse" xlink:href="#linearGradient3855"/><radialGradient id="radialGradient3878" cx="10.384" cy="7.614" r="12" fx="10.384" fy="7.614" gradientTransform="matrix(0.39585463,0.00788241,-0.00767096,0.38523527,5.8229123,4.7348906)" gradientUnits="userSpaceOnUse" xlink:href="#linearGradient3855"/><radialGradient id="radialGradient3881" cx="10.384" cy="7.614" r="12" fx="10.384" fy="7.614" gradientTransform="matrix(0.39585463,0.00788241,-0.00767096,0.38523527,29.822912,1033.0971)" gradientUnits="userSpaceOnUse" xlink:href="#linearGradient3855"/><radialGradient id="radialGradient3888" cx="10.384" cy="7.614" r="12" fx="10.384" fy="7.614" gradientTransform="matrix(0.39585463,0.00788241,-0.00767096,0.38523527,29.822912,1033.0971)" gradientUnits="userSpaceOnUse" xlink:href="#linearGradient3855"/><radialGradient id="radialGradient3891" cx="10.384" cy="7.614" r="12" fx="10.384" fy="7.614" gradientTransform="matrix(0.39585463,0.00788241,-0.00767096,0.38523527,29.822912,1033.0971)" gradientUnits="userSpaceOnUse" xlink:href="#linearGradient3855"/><radialGradient id="radialGradient3893" cx="11.478" cy="10.957" r="9.391" fx="11.478" fy="10.957" gradientTransform="matrix(1.5,4.4485238e-8,-4.4485238e-8,1.5,-5.1521738,-5.1521876)" gradientUnits="userSpaceOnUse" xlink:href="#linearGradient3622"/><radialGradient id="radialGradient3895" cx="10.384" cy="7.614" r="12" fx="10.384" fy="7.614" gradientTransform="matrix(0.39585463,0.00788241,-0.00767096,0.38523527,5.8229123,4.7348906)" gradientUnits="userSpaceOnUse" xlink:href="#linearGradient3855"/><radialGradient id="radialGradient3898" cx="10.384" cy="7.614" r="12" fx="10.384" fy="7.614" gradientTransform="matrix(0.39585463,0.00788241,-0.00767096,0.38523527,5.8229123,1033.0971)" gradientUnits="userSpaceOnUse" xlink:href="#linearGradient3855"/><radialGradient id="radialGradient3906" cx="10.384" cy="7.614" r="12" fx="10.384" fy="7.614" gradientTransform="matrix(0.39585463,0.00788241,-0.00767096,0.38523527,53.822912,1033.0971)" gradientUnits="userSpaceOnUse" xlink:href="#linearGradient3855"/><marker id="TriangleInSx" orient="auto" refX="0" refY="0" style="overflow:visible"><path id="path2902" d="M 5.77,0.0 L -2.88,5.0 L -2.88,-5.0 L 5.77,0.0 z" transform="scale(-0.2)" style="marker-start:none;stroke:#555753;stroke-width:1pt;fill:#555753;fill-rule:evenodd"/></marker><marker id="TriangleInSxF" orient="auto" refX="0" refY="0" style="overflow:visible"><path id="path3031" d="M 5.77,0.0 L -2.88,5.0 L -2.88,-5.0 L 5.77,0.0 z" transform="scale(-0.2)" style="fill-rule:evenodd;marker-start:none;stroke:#06c;stroke-width:1pt;fill:#06c"/></marker></defs><metadata id="metadata7"/><g id="layer1" transform="translate(0,-1036.3622)"><flowRoot id="flowRoot2835" transform="matrix(1.0165643,0,0,1.0165643,0.3185175,1020.5936)" xml:space="preserve" style="font-size:1.5px;font-style:normal;font-weight:400;text-align:center;text-anchor:middle;fill:#000;fill-opacity:1;stroke:none;font-family:Bitstream Vera Sans"><flowRegion id="flowRegion2837"><rect id="rect2839" width="36" height="6" x="-11.868" y="32.41" style="font-size:1.5px;text-align:center;text-anchor:middle"/></flowRegion><flowPara id="flowPara3648">Clear Edit</flowPara></flowRoot><flowRoot id="flowRoot3619" transform="translate(23.868164,983.9527)" xml:space="preserve" style="font-size:1.5px;font-style:normal;font-weight:400;text-align:start;text-anchor:start;fill:#000;fill-opacity:1;stroke:none;font-family:Bitstream Vera Sans"><flowRegion id="flowRegion3621"><rect id="rect3623" width="36" height="6" x="-11.868" y="32.41" style="font-size:1.5px;text-align:start;text-anchor:start"/></flowRegion><flowPara id="flowPara3627">To export: Select an entire 16x16 square,</flowPara><flowPara id="flowPara3631">including its invisible border.</flowPara></flowRoot><g id="g3196" style="stroke-width:2;stroke-miterlimit:4;stroke-dasharray:none"><path id="path3192" d="m 2.5,1038.8622 c 11,11 11,11 11,11" style="fill:none;stroke:#555753;stroke-width:2;stroke-linecap:butt;stroke-linejoin:miter;stroke-opacity:1;stroke-miterlimit:4;stroke-dasharray:none"/><path style="fill:none;stroke:#555753;stroke-width:2;stroke-linecap:butt;stroke-linejoin:miter;stroke-opacity:1;stroke-miterlimit:4;stroke-dasharray:none" id="path3194" d="m 13.5,1038.8622 c -11,11 -11,11 -11,11"/></g><flowRoot style="font-size:1.5px;font-style:normal;font-weight:400;text-align:center;text-anchor:middle;fill:#000;fill-opacity:1;stroke:none;font-family:Bitstream Vera Sans" id="flowRoot3968" transform="matrix(1.0165643,0,0,1.0165643,114.21945,1021.2438)" xml:space="preserve"><flowRegion id="flowRegion3970"><rect style="font-size:1.5px;text-align:center;text-anchor:middle" id="rect3972" width="36" height="6" x="-11.868" y="32.41"/></flowRegion><flowPara id="flowPara3974">Refresh</flowPara></flowRoot><path style="fill:none;stroke:#555753;stroke-width:2.42877483;stroke-linecap:butt;stroke-miterlimit:4;stroke-opacity:1;stroke-dasharray:none;marker-start:none;marker-mid:none;marker-end:url(#TriangleInSx)" id="path3976" d="M 44.767801,8.8390093 A 4.8761611,4.8390093 0 1 1 39.89164,4" transform="matrix(0.82031745,0,0,0.82661548,87.276192,1037.0557)"/><g style="stroke-width:2;stroke-miterlimit:4;stroke-dasharray:none;stroke:#f30" id="g3978" transform="translate(16,0)"><path style="fill:none;stroke:#f30;stroke-width:2;stroke-linecap:butt;stroke-linejoin:miter;stroke-miterlimit:4;stroke-opacity:1;stroke-dasharray:none" id="path3980" d="m 2.5,1038.8622 c 11,11 11,11 11,11"/><path id="path3982" d="m 13.5,1038.8622 c -11,11 -11,11 -11,11" style="fill:none;stroke:#f30;stroke-width:2;stroke-linecap:butt;stroke-linejoin:miter;stroke-miterlimit:4;stroke-opacity:1;stroke-dasharray:none"/></g><path id="path2989" d="M 44.767801,8.8390093 A 4.8761611,4.8390093 0 1 1 39.89164,4" transform="matrix(0.82031745,0,0,0.82661548,103.27619,1037.0557)" style="fill:none;stroke:#06c;stroke-width:2.42877483;stroke-linecap:butt;stroke-miterlimit:4;stroke-opacity:1;stroke-dasharray:none;marker-start:none;marker-mid:none;marker-end:url(#TriangleInSxF)"/><rect style="fill:none;stroke:none;stroke-width:2;stroke-linecap:butt;stroke-miterlimit:4;stroke-opacity:1;stroke-dasharray:none" id="rect3048" width="16" height="16" x="0" y="0" transform="translate(0,1036.3622)"/><rect id="rect3050" width="16" height="16" x="16" y="1036.362" style="fill:none;stroke:none"/><rect style="fill:none;stroke:none" id="rect3052" width="16" height="16" x="112" y="1036.362"/><rect id="rect3054" width="16" height="16" x="128" y="1036.362" style="fill:none;stroke:none"/><rect style="fill:none;stroke:none" id="rect3056" width="16" height="16" x="48" y="1036.362"/><rect id="rect3058" width="16" height="16" x="64" y="1036.362" style="fill:none;stroke:none"/><flowRoot id="flowRoot3060" transform="matrix(1.0165643,0,0,1.0165643,50.219446,1021.2438)" xml:space="preserve" style="font-size:1.5px;font-style:normal;font-weight:400;text-align:center;text-anchor:middle;fill:#000;fill-opacity:1;stroke:none;font-family:Bitstream Vera Sans"><flowRegion id="flowRegion3062"><rect id="rect3064" width="36" height="6" x="-11.868" y="32.41" style="font-size:1.5px;text-align:center;text-anchor:middle"/></flowRegion><flowPara id="flowPara3066">Apply</flowPara></flowRoot><g id="g3902" transform="translate(-16,0)" style="stroke:#555753"><path id="path3068" d="m 66,1044.4492 c 10.17421,0 10.17421,0 10.17421,0" style="fill:none;stroke:#555753;stroke-width:1.99999988;stroke-linecap:square;stroke-linejoin:miter;stroke-miterlimit:4;stroke-opacity:1;stroke-dasharray:none"/><path style="fill:none;stroke:#555753;stroke-width:1.99999988;stroke-linecap:square;stroke-linejoin:miter;stroke-miterlimit:4;stroke-opacity:1;stroke-dasharray:none" id="path3898" d="m 75,1041.8621 c 2.5,2.5 2.5,2.5 2.5,2.5"/><path id="path3900" d="m 74.999996,1046.8622 c 2.5,-2.5 2.5,-2.5 2.5,-2.5" style="fill:none;stroke:#555753;stroke-width:1.99999988;stroke-linecap:square;stroke-linejoin:miter;stroke-miterlimit:4;stroke-opacity:1;stroke-dasharray:none"/></g><g id="g3907"><path style="fill:none;stroke:#06c;stroke-width:1.99999988;stroke-linecap:square;stroke-linejoin:miter;stroke-miterlimit:4;stroke-opacity:1;stroke-dasharray:none" id="path3909" d="m 66,1044.4492 c 10.17421,0 10.17421,0 10.17421,0"/><path id="path3911" d="m 75,1041.8621 c 2.5,2.5 2.5,2.5 2.5,2.5" style="fill:none;stroke:#06c;stroke-width:1.99999988;stroke-linecap:square;stroke-linejoin:miter;stroke-miterlimit:4;stroke-opacity:1;stroke-dasharray:none"/><path style="fill:none;stroke:#06c;stroke-width:1.99999988;stroke-linecap:square;stroke-linejoin:miter;stroke-miterlimit:4;stroke-opacity:1;stroke-dasharray:none" id="path3913" d="m 74.999996,1046.8622 c 2.5,-2.5 2.5,-2.5 2.5,-2.5"/></g><path style="fill:none;stroke:#555753;stroke-width:.72866327;stroke-linecap:square;stroke-miterlimit:4;stroke-opacity:1;stroke-dasharray:none" id="path3069" d="m 104,3.0166731 1.31811,3.1691085 3.42132,0.2742858 -2.60669,2.2329023 0.79639,3.3386263 L 104,10.242497 l -2.92913,1.789099 0.79639,-3.3386262 -2.606685,-2.2329026 3.421315,-0.2742855 z" transform="matrix(1.3714742,0,0,1.3732785,25.366679,1034.1395)"/><rect style="fill:none;stroke:none" id="rect3899" width="16" height="16" x="160" y="1036.362"/><flowRoot id="flowRoot3901" transform="matrix(1.0165643,0,0,1.0165643,160.21945,1021.2438)" xml:space="preserve" style="font-size:1.5px;font-style:normal;font-weight:400;text-align:center;text-anchor:middle;fill:#000;fill-opacity:1;stroke:none;font-family:Bitstream Vera Sans"><flowRegion id="flowRegion3903"><rect id="rect3905" width="36" height="6" x="-11.868" y="32.41" style="font-size:1.5px;text-align:center;text-anchor:middle"/></flowRegion><flowPara id="flowPara3907">Favorites /</flowPara><flowPara id="flowPara3909">Manage filters</flowPara></flowRoot><path style="fill:#555753;stroke:none" id="path3912" d="m 116,6.2357394 -0.19366,-0.3354338 0.38732,0 z" transform="matrix(18.072651,0,0,10.43425,-1864.4275,981.79694)"/><rect id="rect3914" width="16" height="16" x="224" y="1036.362" style="fill:none;stroke:none"/><flowRoot id="flowRoot3916" transform="matrix(1.0165643,0,0,1.0165643,226.21945,1021.2438)" xml:space="preserve" style="font-size:1.5px;font-style:normal;font-weight:400;text-align:center;text-anchor:middle;fill:#000;fill-opacity:1;stroke:none;font-family:Bitstream Vera Sans"><flowRegion id="flowRegion3918"><rect id="rect3920" width="36" height="6" x="-11.868" y="32.41" style="font-size:1.5px;text-align:center;text-anchor:middle"/></flowRegion><flowPara id="flowPara3922">Combo Dropdown</flowPara><flowPara id="flowPara3924">Arrow</flowPara></flowRoot><g id="g3079" transform="translate(32,0)" style="stroke:#900;stroke-width:2;stroke-miterlimit:4;stroke-dasharray:none"><path id="path3081" d="m 2.5,1038.8622 c 11,11 11,11 11,11" style="fill:none;stroke:#900;stroke-width:2;stroke-linecap:butt;stroke-linejoin:miter;stroke-miterlimit:4;stroke-opacity:1;stroke-dasharray:none"/><path style="fill:none;stroke:#900;stroke-width:2;stroke-linecap:butt;stroke-linejoin:miter;stroke-miterlimit:4;stroke-opacity:1;stroke-dasharray:none" id="path3083" d="m 13.5,1038.8622 c -11,11 -11,11 -11,11"/></g><rect style="fill:none;stroke:none" id="rect3085" width="16" height="16" x="32" y="1036.362"/><path id="path3337" d="m 104,3.0166731 1.31811,3.1691085 3.42132,0.2742858 -2.60669,2.2329023 0.79639,3.3386263 L 104,10.242497 l -2.92913,1.789099 0.79639,-3.3386262 -2.606685,-2.2329026 3.421315,-0.2742855 z" transform="matrix(1.3714742,0,0,1.3732785,57.366679,1034.1395)" style="fill:none;stroke:#fce94f;stroke-width:.72866327;stroke-linecap:square;stroke-miterlimit:4;stroke-opacity:1;stroke-dasharray:none"/><rect id="rect3339" width="16" height="16" x="192" y="1036.362" style="fill:none;stroke:none"/><path style="fill:none;stroke:#c4a000;stroke-width:.72866327;stroke-linecap:square;stroke-miterlimit:4;stroke-opacity:1;stroke-dasharray:none" id="path3085" d="m 104,3.0166731 1.31811,3.1691085 3.42132,0.2742858 -2.60669,2.2329023 0.79639,3.3386263 L 104,10.242497 l -2.92913,1.789099 0.79639,-3.3386262 -2.606685,-2.2329026 3.421315,-0.2742855 z" transform="matrix(1.3714742,0,0,1.3732785,41.366679,1034.1395)"/><rect style="fill:none;stroke:none" id="rect3087" width="16" height="16" x="176" y="1036.362"/><rect style="fill:none;stroke:none" id="rect3088" width="16" height="16" x="80" y="1036.362"/><g id="g3090" transform="translate(16,0)" style="fill:#0083d7;stroke:#09f"><path id="path3092" d="m 66,1044.4492 c 10.17421,0 10.17421,0 10.17421,0" style="fill:#0083d7;stroke:#09f;stroke-width:1.99999988000000006;stroke-linecap:square;stroke-linejoin:miter;stroke-miterlimit:4;stroke-opacity:1;stroke-dasharray:none"/><path style="fill:#0083d7;stroke:#09f;stroke-width:1.99999988000000006;stroke-linecap:square;stroke-linejoin:miter;stroke-miterlimit:4;stroke-opacity:1;stroke-dasharray:none" id="path3094" d="m 75,1041.8621 c 2.5,2.5 2.5,2.5 2.5,2.5"/><path id="path3096" d="m 74.999996,1046.8622 c 2.5,-2.5 2.5,-2.5 2.5,-2.5" style="fill:#0083d7;stroke:#09f;stroke-width:1.99999988000000006;stroke-linecap:square;stroke-linejoin:miter;stroke-miterlimit:4;stroke-opacity:1;stroke-dasharray:none"/></g><path style="fill:none;stroke:#09f;stroke-width:2.42877483;stroke-linecap:butt;stroke-miterlimit:4;stroke-opacity:1;stroke-dasharray:none;marker-start:none;marker-mid:none;marker-end:url(#TriangleInSxF)" id="path3098" d="M 44.767801,8.8390093 A 4.8761611,4.8390093 0 1 1 39.89164,4" transform="matrix(0.82031745,0,0,0.82661548,119.27619,1037.0557)"/><rect style="fill:none;stroke:none" id="rect3100" width="16" height="16" x="144" y="1036.362"/><path id="path3314" d="m 104,3.0166731 1.31811,3.1691085 3.42132,0.2742858 -2.60669,2.2329023 0.79639,3.3386263 L 104,10.242497 l -2.92913,1.789099 0.79639,-3.3386262 -2.606685,-2.2329026 3.421315,-0.2742855 z" transform="matrix(1.3714742,0,0,1.3732785,73.366679,1034.1395)" style="fill:none;stroke:#babdb6;stroke-width:.72866326999999997;stroke-linecap:square;stroke-miterlimit:4;stroke-opacity:1;stroke-dasharray:none"/><g style="stroke:#555753" id="g3316" transform="translate(-16,0)"><path style="fill:none;stroke:#555753;stroke-width:1.99999988;stroke-linecap:square;stroke-linejoin:miter;stroke-miterlimit:4;stroke-opacity:1;stroke-dasharray:none" id="path3318" d="m 66,1044.4492 c 10.17421,0 10.17421,0 10.17421,0"/><path id="path3320" d="m 75,1041.8621 c 2.5,2.5 2.5,2.5 2.5,2.5" style="fill:none;stroke:#555753;stroke-width:1.99999988;stroke-linecap:square;stroke-linejoin:miter;stroke-miterlimit:4;stroke-opacity:1;stroke-dasharray:none"/><path style="fill:none;stroke:#555753;stroke-width:1.99999988;stroke-linecap:square;stroke-linejoin:miter;stroke-miterlimit:4;stroke-opacity:1;stroke-dasharray:none" id="path3322" d="m 74.999996,1046.8622 c 2.5,-2.5 2.5,-2.5 2.5,-2.5"/></g><rect id="rect3324" width="16" height="16" x="96" y="1036.362" style="fill:none;stroke:none"/><g style="stroke:#555753" id="g3326" transform="translate(32,0)"><path style="fill:none;stroke:#555753;stroke-width:1.99999988;stroke-linecap:square;stroke-linejoin:miter;stroke-miterlimit:4;stroke-opacity:1;stroke-dasharray:none" id="path3328" d="m 66,1044.4492 c 10.17421,0 10.17421,0 10.17421,0"/><path id="path3330" d="m 75,1041.8621 c 2.5,2.5 2.5,2.5 2.5,2.5" style="fill:none;stroke:#555753;stroke-width:1.99999988;stroke-linecap:square;stroke-linejoin:miter;stroke-miterlimit:4;stroke-opacity:1;stroke-dasharray:none"/><path style="fill:none;stroke:#555753;stroke-width:1.99999988;stroke-linecap:square;stroke-linejoin:miter;stroke-miterlimit:4;stroke-opacity:1;stroke-dasharray:none" id="path3332" d="m 74.999996,1046.8622 c 2.5,-2.5 2.5,-2.5 2.5,-2.5"/></g><g id="g3334" transform="translate(32,0)" style="stroke:#babdb6"><path id="path3336" d="m 66,1044.4492 c 10.17421,0 10.17421,0 10.17421,0" style="fill:none;stroke:#babdb6;stroke-width:1.99999988000000006;stroke-linecap:square;stroke-linejoin:miter;stroke-miterlimit:4;stroke-opacity:1;stroke-dasharray:none"/><path style="fill:none;stroke:#babdb6;stroke-width:1.99999988000000006;stroke-linecap:square;stroke-linejoin:miter;stroke-miterlimit:4;stroke-opacity:1;stroke-dasharray:none" id="path3338" d="m 75,1041.8621 c 2.5,2.5 2.5,2.5 2.5,2.5"/><path id="path3340" d="m 74.999996,1046.8622 c 2.5,-2.5 2.5,-2.5 2.5,-2.5" style="fill:none;stroke:#babdb6;stroke-width:1.99999988000000006;stroke-linecap:square;stroke-linejoin:miter;stroke-miterlimit:4;stroke-opacity:1;stroke-dasharray:none"/></g></g></svg>