<svg xmlns="http://www.w3.org/2000/svg" xmlns:svg="http://www.w3.org/2000/svg" xmlns:xlink="http://www.w3.org/1999/xlink" id="svg2" width="80" height="16" version="1.0"><defs id="defs4"><linearGradient id="linearGradient3872"><stop id="stop3874" offset="0" style="stop-color:#f7f253;stop-opacity:1"/><stop id="stop3876" offset="1" style="stop-color:#bec00a;stop-opacity:1"/></linearGradient><linearGradient id="linearGradient3866"><stop id="stop3868" offset="0" style="stop-color:#a0ffff;stop-opacity:1"/><stop id="stop3870" offset="1" style="stop-color:#0a98b6;stop-opacity:1"/></linearGradient><linearGradient id="linearGradient3860"><stop id="stop3862" offset="0" style="stop-color:#ff5c5c;stop-opacity:.94117647"/><stop id="stop3864" offset="1" style="stop-color:#b30606;stop-opacity:1"/></linearGradient><linearGradient id="linearGradient3824"><stop id="stop3826" offset="0" style="stop-color:#d3d3d3;stop-opacity:1"/><stop id="stop3828" offset="1" style="stop-color:#adadad;stop-opacity:1"/></linearGradient><linearGradient id="linearGradient3152"><stop id="stop3154" offset="0" style="stop-color:#1ba0df;stop-opacity:1"/><stop id="stop3156" offset="1" style="stop-color:#1373a1;stop-opacity:1"/></linearGradient><linearGradient id="linearGradient1702"><stop style="stop-color:#fff;stop-opacity:.81960785" id="stop1703" offset="0"/><stop style="stop-color:#fff;stop-opacity:0" id="stop1704" offset="1"/></linearGradient><linearGradient id="linearGradient1697"><stop style="stop-color:#80b7f7;stop-opacity:1" id="stop1698" offset="0"/><stop style="stop-color:#0b63c9;stop-opacity:1" id="stop1699" offset="1"/></linearGradient><linearGradient id="linearGradient3264" x1="213.828" x2="214.592" y1="183.484" y2="463.473" gradientTransform="matrix(5.3943894e-2,0,0,2.2340667e-2,-3.6045422,-2.3119352)" gradientUnits="userSpaceOnUse" xlink:href="#linearGradient1702"/><linearGradient id="linearGradient3267" x1="520.572" x2="520.572" y1="506.287" y2="466.279" gradientUnits="userSpaceOnUse" xlink:href="#linearGradient1697"/><linearGradient id="linearGradient3818" x1="520.572" x2="520.572" y1="506.287" y2="466.279" gradientUnits="userSpaceOnUse" xlink:href="#linearGradient3824"/><linearGradient id="linearGradient3822" x1="213.828" x2="214.592" y1="183.484" y2="463.473" gradientTransform="matrix(5.3943894e-2,0,0,2.2340667e-2,44.395442,-2.3119352)" gradientUnits="userSpaceOnUse" xlink:href="#linearGradient1702"/><linearGradient id="linearGradient3834" x1="520.572" x2="520.572" y1="506.287" y2="466.279" gradientUnits="userSpaceOnUse" xlink:href="#linearGradient3860"/><linearGradient id="linearGradient3838" x1="213.828" x2="214.592" y1="183.484" y2="463.473" gradientTransform="matrix(5.3943894e-2,0,0,2.2340667e-2,12.39545,-2.3119608)" gradientUnits="userSpaceOnUse" xlink:href="#linearGradient1702"/><linearGradient id="linearGradient3844" x1="520.572" x2="520.572" y1="506.287" y2="466.279" gradientUnits="userSpaceOnUse" xlink:href="#linearGradient3866"/><linearGradient id="linearGradient3848" x1="213.828" x2="214.592" y1="183.484" y2="463.473" gradientTransform="matrix(5.3943894e-2,0,0,2.2340667e-2,28.39545,-2.3119608)" gradientUnits="userSpaceOnUse" xlink:href="#linearGradient1702"/><linearGradient id="linearGradient3854" x1="520.572" x2="520.572" y1="506.287" y2="466.279" gradientUnits="userSpaceOnUse" xlink:href="#linearGradient3872"/><linearGradient id="linearGradient3858" x1="213.828" x2="214.592" y1="183.484" y2="463.473" gradientTransform="matrix(5.3943894e-2,0,0,2.2340667e-2,60.39545,-2.3119608)" gradientUnits="userSpaceOnUse" xlink:href="#linearGradient1702"/></defs><metadata id="metadata7"/><g id="layer1"><path style="fill:url(#linearGradient3267);fill-opacity:1;fill-rule:nonzero;stroke:#000;stroke-width:2.45258416;stroke-linecap:round;stroke-linejoin:round;stroke-miterlimit:4;stroke-dasharray:none;stroke-dashoffset:0;stroke-opacity:1" id="path1070" d="M 544.06634,487.06226 A 20.783747,20.783747 0 1 1 502.49885,487.06226 A 20.783747,20.783747 0 1 1 544.06634,487.06226 z" transform="matrix(0.3180319,0,0,0.3180319,-158.42054,-146.90131)"/><path style="opacity:.9;fill:url(#linearGradient3264);fill-opacity:1;fill-rule:evenodd;stroke:none;stroke-width:.25pt;stroke-linecap:butt;stroke-linejoin:miter;stroke-opacity:1" id="path1713" d="M 12.801525,6.2587544 C 14.341739,6.2251921 12.371052,1.9834825 8.0913372,1.9609208 C 3.4200112,1.9370674 2.46415,5.8129627 3.2062378,5.8836379 C 3.2062378,5.8836379 4.485983,6.0593873 5.7036321,6.3993685 C 7.6640897,6.9524092 10.062091,5.9456684 11.007025,5.7993662 C 12.06037,5.6362785 12.651601,6.3337166 12.801525,6.2587544 z"/><path id="path3814" d="M 544.06634,487.06226 A 20.783747,20.783747 0 1 1 502.49885,487.06226 A 20.783747,20.783747 0 1 1 544.06634,487.06226 z" transform="matrix(0.3180319,0,0,0.3180319,-110.42056,-146.90131)" style="fill:url(#linearGradient3818);fill-opacity:1;fill-rule:nonzero;stroke:#000;stroke-width:2.45325397999999995;stroke-linecap:round;stroke-linejoin:round;stroke-miterlimit:4;stroke-dasharray:none;stroke-dashoffset:0;stroke-opacity:1"/><path id="path3816" d="M 60.801509,6.2587544 C 62.341723,6.2251921 60.371036,1.9834825 56.091321,1.9609208 C 51.419995,1.9370674 50.464134,5.8129627 51.206222,5.8836379 C 51.206222,5.8836379 52.485967,6.0593873 53.703616,6.3993685 C 55.664074,6.9524092 58.062075,5.9456684 59.007009,5.7993662 C 60.060354,5.6362785 60.651585,6.3337166 60.801509,6.2587544 z" style="opacity:.9;fill:url(#linearGradient3822);fill-opacity:1;fill-rule:evenodd;stroke:none;stroke-width:.25pt;stroke-linecap:butt;stroke-linejoin:miter;stroke-opacity:1"/><path id="path3830" d="M 544.06634,487.06226 A 20.783747,20.783747 0 1 1 502.49885,487.06226 A 20.783747,20.783747 0 1 1 544.06634,487.06226 z" transform="matrix(0.3180319,0,0,0.3180319,-142.42056,-146.90134)" style="fill:url(#linearGradient3834);fill-opacity:1;fill-rule:nonzero;stroke:#000;stroke-width:2.45258415999999979;stroke-linecap:round;stroke-linejoin:round;stroke-miterlimit:4;stroke-dasharray:none;stroke-dashoffset:0;stroke-opacity:1"/><path id="path3832" d="M 28.801517,6.2587288 C 30.341731,6.2251665 28.371044,1.9834569 24.091329,1.9608952 C 19.420003,1.9370418 18.464142,5.8129371 19.20623,5.8836123 C 19.20623,5.8836123 20.485975,6.0593617 21.703624,6.3993429 C 23.664082,6.9523836 26.062083,5.9456428 27.007017,5.7993406 C 28.060362,5.6362529 28.651593,6.333691 28.801517,6.2587288 z" style="opacity:.90000000000000002;fill:url(#linearGradient3838);fill-opacity:1;fill-rule:evenodd;stroke:none;stroke-width:.78;stroke-linecap:butt;stroke-linejoin:miter;stroke-opacity:1;stroke-miterlimit:4;stroke-dasharray:none"/><path style="fill:url(#linearGradient3844);fill-opacity:1;fill-rule:nonzero;stroke:#000;stroke-width:2.45325397999999995;stroke-linecap:round;stroke-linejoin:round;stroke-miterlimit:4;stroke-dasharray:none;stroke-dashoffset:0;stroke-opacity:1" id="path3840" d="M 544.06634,487.06226 A 20.783747,20.783747 0 1 1 502.49885,487.06226 A 20.783747,20.783747 0 1 1 544.06634,487.06226 z" transform="matrix(0.3180319,0,0,0.3180319,-126.42056,-146.90134)"/><path style="opacity:.9;fill:url(#linearGradient3848);fill-opacity:1;fill-rule:evenodd;stroke:none;stroke-width:.25pt;stroke-linecap:butt;stroke-linejoin:miter;stroke-opacity:1" id="path3842" d="M 44.801517,6.2587288 C 46.341731,6.2251665 44.371044,1.9834569 40.091329,1.9608952 C 35.420003,1.9370418 34.464142,5.8129371 35.20623,5.8836123 C 35.20623,5.8836123 36.485975,6.0593617 37.703624,6.3993429 C 39.664082,6.9523836 42.062083,5.9456428 43.007017,5.7993406 C 44.060362,5.6362529 44.651593,6.333691 44.801517,6.2587288 z"/><path id="path3850" d="M 544.06634,487.06226 A 20.783747,20.783747 0 1 1 502.49885,487.06226 A 20.783747,20.783747 0 1 1 544.06634,487.06226 z" transform="matrix(0.3180319,0,0,0.3180319,-94.420556,-146.90134)" style="fill:url(#linearGradient3854);fill-opacity:1;fill-rule:nonzero;stroke:#000;stroke-width:2.45325397999999995;stroke-linecap:round;stroke-linejoin:round;stroke-miterlimit:4;stroke-dasharray:none;stroke-dashoffset:0;stroke-opacity:1"/><path id="path3852" d="M 76.801517,6.2587288 C 78.341731,6.2251665 76.371044,1.9834569 72.091329,1.9608952 C 67.420003,1.9370418 66.464142,5.8129371 67.20623,5.8836123 C 67.20623,5.8836123 68.485975,6.0593617 69.703624,6.3993429 C 71.664082,6.9523836 74.062083,5.9456428 75.007017,5.7993406 C 76.060362,5.6362529 76.651593,6.333691 76.801517,6.2587288 z" style="opacity:.9;fill:url(#linearGradient3858);fill-opacity:1;fill-rule:evenodd;stroke:none;stroke-width:.25pt;stroke-linecap:butt;stroke-linejoin:miter;stroke-opacity:1"/><text id="text3878" x="3.731" y="-2.074" xml:space="preserve" style="font-size:14px;font-style:normal;font-variant:normal;font-weight:400;font-stretch:normal;fill:#000;fill-opacity:1;stroke:none;stroke-width:1px;stroke-linecap:butt;stroke-linejoin:miter;stroke-opacity:1;font-family:Courier;-inkscape-font-specification:Courier"><tspan style="font-size:4px;font-style:normal;font-variant:normal;font-weight:400;font-stretch:normal;font-family:Helvetica;-inkscape-font-specification:Helvetica" id="tspan3880" x="3.731" y="-2.074">Chat</tspan></text><text style="font-size:14px;font-style:normal;font-variant:normal;font-weight:400;font-stretch:normal;fill:#000;fill-opacity:1;stroke:none;stroke-width:1px;stroke-linecap:butt;stroke-linejoin:miter;stroke-opacity:1;font-family:Courier;-inkscape-font-specification:Courier" id="text3882" x="19.397" y="-2.074" xml:space="preserve"><tspan id="tspan3884" x="19.397" y="-2.074" style="font-size:4px;font-style:normal;font-variant:normal;font-weight:400;font-stretch:normal;font-family:Helvetica;-inkscape-font-specification:Helvetica">Error</tspan></text><text id="text3886" x="35.705" y="-2.074" xml:space="preserve" style="font-size:14px;font-style:normal;font-variant:normal;font-weight:400;font-stretch:normal;fill:#000;fill-opacity:1;stroke:none;stroke-width:1px;stroke-linecap:butt;stroke-linejoin:miter;stroke-opacity:1;font-family:Courier;-inkscape-font-specification:Courier"><tspan style="font-size:4px;font-style:normal;font-variant:normal;font-weight:400;font-stretch:normal;font-family:Helvetica;-inkscape-font-specification:Helvetica" id="tspan3888" x="35.705" y="-2.074">Note</tspan></text><text style="font-size:14px;font-style:normal;font-variant:normal;font-weight:400;font-stretch:normal;fill:#000;fill-opacity:1;stroke:none;stroke-width:1px;stroke-linecap:butt;stroke-linejoin:miter;stroke-opacity:1;font-family:Courier;-inkscape-font-specification:Courier" id="text3890" x="51.15" y="-2.074" xml:space="preserve"><tspan id="tspan3892" x="51.15" y="-2.074" style="font-size:4px;font-style:normal;font-variant:normal;font-weight:400;font-stretch:normal;font-family:Helvetica;-inkscape-font-specification:Helvetica">None</tspan></text><text id="text3894" x="67.314" y="-2.074" xml:space="preserve" style="font-size:14px;font-style:normal;font-variant:normal;font-weight:400;font-stretch:normal;fill:#000;fill-opacity:1;stroke:none;stroke-width:1px;stroke-linecap:butt;stroke-linejoin:miter;stroke-opacity:1;font-family:Courier;-inkscape-font-specification:Courier"><tspan style="font-size:4px;font-style:normal;font-variant:normal;font-weight:400;font-stretch:normal;font-family:Helvetica;-inkscape-font-specification:Helvetica" id="tspan3896" x="67.314" y="-2.074">Warn</tspan></text><text id="text4583" x=".844" y="30.115" transform="scale(1.0000012,0.9999988)" xml:space="preserve" style="font-size:4.00000477px;font-style:normal;font-variant:normal;font-weight:400;font-stretch:normal;fill:#000;fill-opacity:1;stroke:none;stroke-width:1px;stroke-linecap:butt;stroke-linejoin:miter;stroke-opacity:1;font-family:Helvetica;-inkscape-font-specification:Helvetica"><tspan id="tspan4595" x=".844" y="30.115">Originally from the public domain image at </tspan><tspan id="tspan4599" x=".844" y="35.115">http://openclipart.org/Xiph/files/Anonymous/13273</tspan></text></g></svg>